<svg xmlns="http://www.w3.org/2000/svg" width="309.192" height="89.474" viewBox="0 0 309.192 89.474">
  <g id="macaque-consulting-horizontal-negativo-registrado" transform="translate(-1025.074 -360.265)">
    <path id="Trazado_267" data-name="Trazado 267" d="M89.469,85.633a9.909,9.909,0,0,1,1.121.063,10.083,10.083,0,0,1,1.11.188,10.274,10.274,0,0,1,1.089.311,10.656,10.656,0,0,1,1.057.433,10.815,10.815,0,0,1,1.014.548,11.19,11.19,0,0,1,.962.659,11.618,11.618,0,0,1,.9.765q.434.407.832.861t.754.95q.356.5.668,1.03t.578,1.1q.264.566.479,1.16t.378,1.207q.163.614.273,1.245t.165,1.269q.055.638.055,1.281t-.055,1.281q-.055.64-.165,1.269t-.273,1.245q-.163.614-.378,1.207t-.479,1.16q-.265.565-.578,1.1T98.309,107q-.356.5-.754.95t-.832.861a11.435,11.435,0,0,1-.9.764,11.2,11.2,0,0,1-.962.66,11,11,0,0,1-1.014.548,10.465,10.465,0,0,1-1.057.432,10.275,10.275,0,0,1-1.089.312,10.083,10.083,0,0,1-1.11.188,9.972,9.972,0,0,1-2.242,0,10.083,10.083,0,0,1-1.11-.188,10.275,10.275,0,0,1-1.089-.312,10.465,10.465,0,0,1-1.057-.432,11,11,0,0,1-1.014-.548,11.2,11.2,0,0,1-.962-.66,11.436,11.436,0,0,1-.9-.764q-.434-.407-.832-.861t-.754-.95q-.356-.5-.668-1.03t-.578-1.1q-.264-.566-.48-1.16t-.378-1.207q-.163-.616-.273-1.245t-.165-1.269q-.055-.638-.055-1.281t.055-1.281q.055-.64.165-1.269t.273-1.245q.163-.614.378-1.207t.48-1.16q.265-.566.578-1.1t.668-1.03q.356-.5.754-.95t.832-.861a11.62,11.62,0,0,1,.9-.765,11.191,11.191,0,0,1,.962-.659,10.815,10.815,0,0,1,1.014-.548,10.656,10.656,0,0,1,1.057-.433,10.274,10.274,0,0,1,1.089-.311,10.083,10.083,0,0,1,1.11-.188,9.909,9.909,0,0,1,1.121-.063" transform="translate(1006.208 307.726)" fill="#90b572"/>
    <path id="Trazado_268" data-name="Trazado 268" d="M95.379,100.287l-3.432-3.832Q91.784,95,91.5,93.588a5.3,5.3,0,0,1,.66-.042c3.257,0,5.9,3.018,5.9,6.741s-2.641,6.74-5.9,6.74a5.3,5.3,0,0,1-.66-.042q.282-1.409.443-2.866Z" transform="translate(1003.514 306.143)" fill="#fff"/>
    <path id="Trazado_269" data-name="Trazado 269" d="M32.357,85.633a9.909,9.909,0,0,1,1.121.063,10.083,10.083,0,0,1,1.11.188,10.274,10.274,0,0,1,1.089.311,10.656,10.656,0,0,1,1.057.433,10.815,10.815,0,0,1,1.014.548,11.191,11.191,0,0,1,.962.659,11.619,11.619,0,0,1,.9.765q.434.407.832.861t.754.95q.356.5.668,1.03t.578,1.1q.264.566.479,1.16t.378,1.207q.163.614.273,1.245t.165,1.269q.055.638.055,1.281t-.055,1.281q-.055.64-.165,1.269T43.3,102.5q-.163.614-.378,1.207t-.479,1.16q-.265.565-.578,1.1T41.2,107q-.356.5-.754.95t-.832.861a11.436,11.436,0,0,1-.9.764,11.2,11.2,0,0,1-.962.66,11,11,0,0,1-1.014.548,10.466,10.466,0,0,1-1.057.432,10.275,10.275,0,0,1-1.089.312,10.083,10.083,0,0,1-1.11.188,9.972,9.972,0,0,1-2.242,0,10.083,10.083,0,0,1-1.11-.188,10.275,10.275,0,0,1-1.089-.312,10.465,10.465,0,0,1-1.057-.432,11,11,0,0,1-1.014-.548,11.2,11.2,0,0,1-.962-.66,11.436,11.436,0,0,1-.9-.764q-.434-.407-.832-.861t-.754-.95q-.356-.5-.668-1.03t-.578-1.1q-.264-.566-.479-1.16t-.378-1.207q-.163-.616-.273-1.245t-.165-1.269q-.055-.638-.055-1.281t.055-1.281q.055-.64.165-1.269t.273-1.245q.163-.614.378-1.207t.479-1.16q.265-.566.578-1.1t.668-1.03q.356-.5.754-.95T25.1,88.6a11.619,11.619,0,0,1,.9-.765,11.191,11.191,0,0,1,.962-.659,10.815,10.815,0,0,1,1.014-.548,10.656,10.656,0,0,1,1.057-.433,10.274,10.274,0,0,1,1.089-.311,10.083,10.083,0,0,1,1.11-.188,9.909,9.909,0,0,1,1.121-.063" transform="translate(1017.631 307.726)" fill="#90b572"/>
    <path id="Trazado_270" data-name="Trazado 270" d="M30.527,100.287l3.43-3.832q.163-1.456.444-2.866a5.288,5.288,0,0,0-.66-.042c-3.258,0-5.9,3.018-5.9,6.741s2.64,6.74,5.9,6.74a5.288,5.288,0,0,0,.66-.042q-.281-1.409-.444-2.866Z" transform="translate(1016.246 306.143)" fill="#fff"/>
    <path id="Trazado_271" data-name="Trazado 271" d="M58.1,69.251a19.736,19.736,0,0,1,2.237.126,20.094,20.094,0,0,1,2.214.377,20.449,20.449,0,0,1,2.172.623,20.95,20.95,0,0,1,2.109.864,21.633,21.633,0,0,1,2.024,1.1,22.652,22.652,0,0,1,1.921,1.32,23.277,23.277,0,0,1,1.8,1.528q.866.815,1.659,1.722t1.5,1.9q.712.994,1.334,2.06t1.151,2.2q.528,1.13.957,2.318t.754,2.414q.325,1.231.544,2.49t.329,2.538q.11,1.278.11,2.562t-.11,2.562q-.11,1.277-.329,2.538t-.544,2.488q-.325,1.229-.754,2.415t-.957,2.319q-.529,1.133-1.151,2.2t-1.334,2.06q-.71.994-1.5,1.9T72.578,115.6q-.866.814-1.8,1.527a22.278,22.278,0,0,1-1.921,1.319,21.455,21.455,0,0,1-2.024,1.1,21.15,21.15,0,0,1-2.109.865,20.448,20.448,0,0,1-2.172.622,20.007,20.007,0,0,1-8.9,0,20.449,20.449,0,0,1-2.172-.622,21.15,21.15,0,0,1-2.109-.865,21.456,21.456,0,0,1-2.024-1.1,22.277,22.277,0,0,1-1.921-1.319q-.931-.714-1.8-1.527t-1.659-1.723q-.792-.908-1.5-1.9t-1.334-2.06q-.623-1.068-1.151-2.2t-.957-2.319q-.43-1.186-.754-2.415t-.544-2.488q-.22-1.26-.329-2.538t-.11-2.562q0-1.284.11-2.562t.329-2.538q.218-1.26.544-2.488t.754-2.416q.428-1.186.957-2.318t1.151-2.2q.623-1.067,1.334-2.06t1.5-1.9q.793-.907,1.659-1.722a23.277,23.277,0,0,1,1.8-1.528,22.651,22.651,0,0,1,1.921-1.32,21.634,21.634,0,0,1,2.024-1.1,20.951,20.951,0,0,1,2.109-.864,20.449,20.449,0,0,1,2.172-.623,20.094,20.094,0,0,1,2.214-.377,19.736,19.736,0,0,1,2.237-.126" transform="translate(1014.757 311.003)" fill="#90b572"/>
    <path id="Trazado_272" data-name="Trazado 272" d="M59.313,94.89a1.027,1.027,0,0,0,1.011-.964c.359-4.659,3.328-8.292,7.975-8.292a9.123,9.123,0,0,1,8.986,9.256,9.268,9.268,0,0,1-5.418,8.5,1.3,1.3,0,0,0-.59,1.819,7.387,7.387,0,0,1,.944,3.584c0,5.258-5.759,9.521-12.864,9.521s-12.866-4.263-12.866-9.521a7.379,7.379,0,0,1,.93-3.555,1.3,1.3,0,0,0-.6-1.822,9.261,9.261,0,0,1-5.479-8.522,9.124,9.124,0,0,1,8.986-9.256c4.646,0,7.615,3.633,7.974,8.292a1.028,1.028,0,0,0,1.01.964" transform="translate(1013.546 307.726)" fill="#fff"/>
    <path id="Trazado_273" data-name="Trazado 273" d="M61.438,118.428c-4.508,0-7.993-1.479-9.321-3.957a1.307,1.307,0,1,1,2.3-1.234c.838,1.565,3.594,2.577,7.016,2.577s6.178-1.012,7.017-2.577a1.307,1.307,0,1,1,2.3,1.234c-1.328,2.478-4.813,3.957-9.322,3.957" transform="translate(1011.422 302.343)" fill="#90b572"/>
    <path id="Trazado_274" data-name="Trazado 274" d="M62.96,109.2a3.83,3.83,0,0,0,3.335-3.628,1.521,1.521,0,0,0-2.355-1.34,1.5,1.5,0,0,1-1.735.048c-1.3-.781-2.425-.012-2.436,1.6-.01,1.471,1.793,3.348,3.191,3.318" transform="translate(1009.861 304.059)" fill="#90b572"/>
    <path id="Trazado_275" data-name="Trazado 275" d="M55.312,98.007A1.307,1.307,0,0,1,54,96.7c0-1.062-1.272-1.96-2.777-1.96s-2.778.9-2.778,1.96a1.307,1.307,0,0,1-2.614,0,4.3,4.3,0,0,1,1.688-3.331,6.142,6.142,0,0,1,7.41,0A4.3,4.3,0,0,1,56.619,96.7a1.307,1.307,0,0,1-1.307,1.307" transform="translate(1012.648 306.428)" fill="#90b572"/>
    <path id="Trazado_276" data-name="Trazado 276" d="M77.775,98.007A1.307,1.307,0,0,1,76.468,96.7c0-1.062-1.271-1.96-2.777-1.96s-2.778.9-2.778,1.96a1.307,1.307,0,1,1-2.614,0,4.3,4.3,0,0,1,1.686-3.331,6.141,6.141,0,0,1,7.409,0A4.3,4.3,0,0,1,79.082,96.7a1.307,1.307,0,0,1-1.307,1.307" transform="translate(1008.154 306.428)" fill="#90b572"/>
    <path id="Trazado_277" data-name="Trazado 277" d="M51.536,70.815s1.891-10.91,12.813-9.628a.6.6,0,0,1,.3,1.058,10.25,10.25,0,0,0-2.787,3.214.589.589,0,0,0,.813.8,9.857,9.857,0,0,1,8.044-1.086.6.6,0,0,1,.137,1.082,7.493,7.493,0,0,0-3.645,4.634Z" transform="translate(1011.507 312.636)" fill="#90b572"/>
    <path id="Trazado_278" data-name="Trazado 278" d="M7.782,98.707c0-2.318-.888-2.549-1.854-2.549a1.854,1.854,0,1,1,0-3.707c.966,0,1.854-.233,1.854-2.55V76.353c0-3.515,1.778-5.059,5.138-5.059h2.394a1.738,1.738,0,1,1,0,3.475h-.966c-1.081,0-1.7.658-1.7,2.242V90.364c0,3.514-2.818,3.785-4.172,3.9v.076c1.354.116,4.172.386,4.172,3.9v13.078c0,1.585.619,2.241,1.7,2.241h.966a1.739,1.739,0,0,1,0,3.478H12.92c-3.361,0-5.138-1.544-5.138-5.061Z" transform="translate(1021 310.594)" fill="#9ca3a2"/>
    <path id="Trazado_279" data-name="Trazado 279" d="M116.589,89.626c0,2.318.888,2.55,1.854,2.55a1.854,1.854,0,1,1,0,3.709c-.966,0-1.854.23-1.854,2.549v13.546c0,3.515-1.778,5.061-5.138,5.061h-2.394a1.738,1.738,0,0,1,0-3.477h.966c1.081,0,1.7-.657,1.7-2.241V97.97c0-3.515,2.818-3.786,4.172-3.9v-.077c-1.354-.115-4.172-.386-4.172-3.9V77.011c0-1.585-.618-2.241-1.7-2.241h-.966a1.738,1.738,0,1,1,0-3.476h2.394c3.361,0,5.138,1.545,5.138,5.06Z" transform="translate(1000.351 310.594)" fill="#9ca3a2"/>
    <path id="Trazado_280" data-name="Trazado 280" d="M50.057,49.371a2.549,2.549,0,0,1-.3-5.079l.073-.009a2.549,2.549,0,0,1,.6,5.063l-.058.006a2.521,2.521,0,0,1-.31.018m10.3.008a2.533,2.533,0,0,1-.31-.019l-.062-.007a2.548,2.548,0,1,1,.606-5.061l.068.007a2.549,2.549,0,0,1-.3,5.08M40.12,51.814a2.55,2.55,0,0,1-.9-4.936l.062-.022a2.549,2.549,0,0,1,1.8,4.77l-.061.023a2.537,2.537,0,0,1-.9.166m30.17.018a2.531,2.531,0,0,1-.906-.167l-.061-.023a2.549,2.549,0,0,1,1.814-4.764l.061.023a2.549,2.549,0,0,1-.908,4.931M31.061,56.573a2.549,2.549,0,0,1-1.45-4.646l.056-.038a2.549,2.549,0,1,1,2.893,4.2l-.052.036a2.54,2.54,0,0,1-1.446.451m48.276.027a2.535,2.535,0,0,1-1.45-.454l-.054-.037a2.549,2.549,0,0,1,2.9-4.19l.054.037A2.548,2.548,0,0,1,79.337,56.6M23.4,63.358a2.549,2.549,0,0,1-1.9-4.242l.046-.053a2.549,2.549,0,1,1,3.8,3.393L25.3,62.5a2.544,2.544,0,0,1-1.906.857m63.595.035a2.541,2.541,0,0,1-1.91-.861l-.038-.042A2.548,2.548,0,1,1,88.852,59.1l.048.054a2.549,2.549,0,0,1-1.907,4.238m-63.662,56.26a2.544,2.544,0,0,1-1.911-.862l-.045-.051a2.549,2.549,0,1,1,3.825-3.37l.042.047a2.548,2.548,0,0,1-1.91,4.236m63.505.214a2.548,2.548,0,0,1-1.9-4.246l.041-.046a2.549,2.549,0,0,1,3.807,3.39l-.047.052a2.539,2.539,0,0,1-1.9.85m-55.864,6.588a2.54,2.54,0,0,1-1.444-.45l-.065-.045a2.549,2.549,0,0,1,2.916-4.182l.042.03a2.549,2.549,0,0,1-1.449,4.647m48.176.165a2.549,2.549,0,0,1-1.442-4.652l.049-.034a2.549,2.549,0,0,1,2.89,4.2l-.058.041a2.545,2.545,0,0,1-1.438.446m-39.132,4.616a2.544,2.544,0,0,1-.913-.17l-.059-.022a2.549,2.549,0,0,1,1.822-4.761l.063.024a2.549,2.549,0,0,1-.913,4.929m30.049.1a2.549,2.549,0,0,1-.893-4.937l.055-.021a2.549,2.549,0,1,1,1.8,4.77l-.068.025a2.53,2.53,0,0,1-.892.162M49.95,133.7a2.553,2.553,0,0,1-.311-.018l-.071-.008a2.549,2.549,0,0,1,.628-5.059l.058.006a2.549,2.549,0,0,1-.3,5.079m10.16.036a2.549,2.549,0,0,1-.287-5.081l.051-.006a2.549,2.549,0,0,1,.61,5.061l-.078.01a2.608,2.608,0,0,1-.3.017" transform="translate(1017.667 316)" fill="#9ca3a2"/>
    <path id="Trazado_281" data-name="Trazado 281" d="M139.528,92.14l2.231-28.626a24.775,24.775,0,0,1,4.378-.336,25.516,25.516,0,0,1,4.42.336l2.483,10.314q1.474,6.989,1.558,7.62h.3q.168-1.052,1.557-7.62l2.526-10.314a24.772,24.772,0,0,1,4.378-.336,25.5,25.5,0,0,1,4.42.336l2.231,28.626a13.122,13.122,0,0,1-3.219.337,19.085,19.085,0,0,1-3.137-.211l-.674-11.7q-.3-6.988-.337-9.725h-.253L158.22,87.972a23.991,23.991,0,0,1-6.947,0l-4.126-17.133h-.294q0,3.748-.337,9.725l-.632,11.7a19.084,19.084,0,0,1-3.135.211,13.118,13.118,0,0,1-3.221-.337" transform="translate(993.909 312.217)" fill="#90b572"/>
    <path id="Trazado_282" data-name="Trazado 282" d="M190.622,80.91l1.685-.042h3.072q.21,0,.737.021c.35.015.611.021.779.021l-.716-2.61q-1.01-3.536-2.315-8.672h-.253q-.337,1.811-2.021,8.041Zm.126,5.3q-1.136,0-1.684-.042l-1.81,6.1a12.162,12.162,0,0,1-2.821.253,9.71,9.71,0,0,1-3.283-.463l-.21-.337L190.2,63.483a25.314,25.314,0,0,1,3.83-.253,21.1,21.1,0,0,1,3.957.294l9.093,28.289a6.856,6.856,0,0,1-3.325.8,4.773,4.773,0,0,1-3.074-.758,6.128,6.128,0,0,1-1.516-2.9l-.8-2.778c-.366.027-.912.042-1.642.042Z" transform="translate(985.626 312.207)" fill="#90b572"/>
    <path id="Trazado_283" data-name="Trazado 283" d="M231.593,74.828v-.5q0-6.232-4.631-6.231a3.977,3.977,0,0,0-3.831,2.421,16.882,16.882,0,0,0-1.178,7.135q0,4.673,1.474,6.946a4.8,4.8,0,0,0,4.293,2.272,9.127,9.127,0,0,0,3.264-.694,17.967,17.967,0,0,0,3.894-2.21,8.091,8.091,0,0,1,1.958,1.958,5.955,5.955,0,0,1,1.115,2.379,14.722,14.722,0,0,1-2.252,1.746,16.074,16.074,0,0,1-2.778,1.41,20.477,20.477,0,0,1-3.116.948,15.09,15.09,0,0,1-3.262.358,11.112,11.112,0,0,1-5.471-1.242,10.178,10.178,0,0,1-3.6-3.3,14.185,14.185,0,0,1-1.978-4.757,25.212,25.212,0,0,1-.611-5.6,20.971,20.971,0,0,1,.948-6.63,14.006,14.006,0,0,1,2.568-4.736A10.4,10.4,0,0,1,222.2,63.65a11.659,11.659,0,0,1,4.673-.947,14.717,14.717,0,0,1,4.59.674,10.867,10.867,0,0,1,3.514,1.851,8.146,8.146,0,0,1,2.231,2.78,7.783,7.783,0,0,1,.779,3.451q0,3.748-3.831,3.746a10.16,10.16,0,0,1-2.567-.378" transform="translate(978.838 312.312)" fill="#90b572"/>
    <path id="Trazado_284" data-name="Trazado 284" d="M255.188,80.91l1.684-.042h3.074q.209,0,.736.021c.351.015.61.021.779.021l-.717-2.61q-1.009-3.536-2.314-8.672h-.252q-.337,1.811-2.022,8.041Zm.126,5.3c-.757,0-1.32-.014-1.683-.042l-1.81,6.1a12.167,12.167,0,0,1-2.821.253,9.7,9.7,0,0,1-3.283-.463l-.21-.337,9.261-28.246a25.344,25.344,0,0,1,3.831-.253,21.1,21.1,0,0,1,3.957.294l9.093,28.289a6.864,6.864,0,0,1-3.326.8,4.774,4.774,0,0,1-3.073-.758,6.135,6.135,0,0,1-1.515-2.9l-.8-2.778q-.547.041-1.642.042Z" transform="translate(972.712 312.207)" fill="#90b572"/>
    <path id="Trazado_285" data-name="Trazado 285" d="M290.98,67.934q-5.682,0-5.682,9.852,0,9.809,5.682,9.807,5.6,0,5.6-9.807,0-9.852-5.6-9.852m4.21,28.584L290.9,92.771a13.167,13.167,0,0,1-5.219-.99,10.48,10.48,0,0,1-3.937-2.9,13.232,13.232,0,0,1-2.484-4.694,21.62,21.62,0,0,1-.862-6.4,22.438,22.438,0,0,1,.821-6.358,12.984,12.984,0,0,1,2.442-4.715,10.55,10.55,0,0,1,3.958-2.946,14.686,14.686,0,0,1,10.755.021,10.532,10.532,0,0,1,3.957,2.968,13.153,13.153,0,0,1,2.421,4.715,22.267,22.267,0,0,1,.821,6.315,24.475,24.475,0,0,1-.4,4.524,16.638,16.638,0,0,1-1.178,3.831,10.5,10.5,0,0,1-1.9,2.884,6.433,6.433,0,0,1-2.547,1.684l1.1.758a9.522,9.522,0,0,0,5.3,1.978,5.314,5.314,0,0,1-1.284,3.474,4.284,4.284,0,0,1-3.346,1.326,6.45,6.45,0,0,1-4.126-1.726" transform="translate(966.135 312.301)" fill="#90b572"/>
    <path id="Trazado_286" data-name="Trazado 286" d="M336.961,63.472V81.616q0,5.387-2.942,8.314t-8.4,2.926q-5.464,0-8.426-2.926t-2.962-8.314V63.472l.294-.3h2.485q4,0,4,4.294V81.7a7.4,7.4,0,0,0,1.052,4.378,5.188,5.188,0,0,0,7.156,0,7.394,7.394,0,0,0,1.054-4.378V63.472a17.947,17.947,0,0,1,3.346-.253,18.385,18.385,0,0,1,3.347.253" transform="translate(958.967 312.217)" fill="#90b572"/>
    <path id="Trazado_287" data-name="Trazado 287" d="M355.756,83.795l-.042,3.03v.042q1.928-.084,3.106-.084h9.734a17.29,17.29,0,0,1-.126,2.4q-.505,3.242-4.294,3.242h-11.2a3.8,3.8,0,0,1-2.842-1.052,3.912,3.912,0,0,1-1.03-2.863V63.84l.294-.294H367.5a13.187,13.187,0,0,1,.252,2.652,8.441,8.441,0,0,1-.588,2.988H355.714l.042,3.032v2.946q1.09-.041,2.85-.042h6.413a8.823,8.823,0,0,1,.378,2.7,9.657,9.657,0,0,1-.378,2.778h-9.262Z" transform="translate(952 312.144)" fill="#90b572"/>
    <path id="Trazado_288" data-name="Trazado 288" d="M139.37,124.246c0-4.8,3.661-8.294,8.6-8.294a8.01,8.01,0,0,1,6.162,2.525l-1.506,1.46a6.006,6.006,0,0,0-4.563-1.923,6.233,6.233,0,1,0,0,12.464,6.032,6.032,0,0,0,4.563-1.946l1.506,1.459a8.044,8.044,0,0,1-6.185,2.548,8.2,8.2,0,0,1-8.572-8.294" transform="translate(993.94 301.662)" fill="#9ca3a2"/>
    <path id="Trazado_289" data-name="Trazado 289" d="M179.39,124.246a6.3,6.3,0,1,0-6.278,6.232,6.089,6.089,0,0,0,6.278-6.232m-14.92,0c0-4.75,3.661-8.294,8.642-8.294a8.3,8.3,0,1,1,0,16.587c-4.982,0-8.642-3.544-8.642-8.294" transform="translate(988.92 301.662)" fill="#9ca3a2"/>
    <path id="Trazado_290" data-name="Trazado 290" d="M208.99,116.183V132.4h-1.9l-9.729-12.093V132.4h-2.317V116.183h1.9l9.731,12.094V116.183Z" transform="translate(982.805 301.616)" fill="#9ca3a2"/>
    <path id="Trazado_291" data-name="Trazado 291" d="M221.3,130.5l.856-1.807a8.348,8.348,0,0,0,5.352,1.876c2.8,0,4.008-1.088,4.008-2.5,0-3.962-9.823-1.46-9.823-7.484,0-2.5,1.946-4.633,6.21-4.633a9.543,9.543,0,0,1,5.212,1.437l-.764,1.853a8.382,8.382,0,0,0-4.448-1.321c-2.758,0-3.939,1.158-3.939,2.572,0,3.961,9.822,1.483,9.822,7.436,0,2.48-1.992,4.611-6.278,4.611A9.623,9.623,0,0,1,221.3,130.5" transform="translate(977.553 301.662)" fill="#9ca3a2"/>
    <path id="Trazado_292" data-name="Trazado 292" d="M245.561,125.4v-9.222h2.317v9.129c0,3.59,1.644,5.212,4.563,5.212s4.587-1.622,4.587-5.212v-9.129h2.247V125.4c0,4.7-2.572,7.182-6.857,7.182-4.263,0-6.858-2.479-6.858-7.182" transform="translate(972.701 301.616)" fill="#9ca3a2"/>
    <path id="Trazado_293" data-name="Trazado 293" d="M273.237,116.183h2.317v14.2h8.78V132.4h-11.1Z" transform="translate(967.166 301.616)" fill="#9ca3a2"/>
    <path id="Trazado_294" data-name="Trazado 294" d="M295.792,118.2h-5.559v-2.016h13.413V118.2h-5.559v14.2h-2.294Z" transform="translate(963.767 301.616)" fill="#9ca3a2"/>
    <rect id="Rectángulo_10" data-name="Rectángulo 10" width="2.316" height="16.217" transform="translate(1273.615 417.799)" fill="#9ca3a2"/>
    <path id="Trazado_295" data-name="Trazado 295" d="M342.277,116.183V132.4h-1.9l-9.73-12.093V132.4H328.33V116.183h1.9l9.73,12.094V116.183Z" transform="translate(956.147 301.616)" fill="#9ca3a2"/>
    <path id="Trazado_296" data-name="Trazado 296" d="M367.347,124.153h2.224v6.325a9.581,9.581,0,0,1-6.139,2.062c-4.981,0-8.641-3.5-8.641-8.294s3.66-8.294,8.688-8.294a8.129,8.129,0,0,1,6.231,2.5l-1.436,1.436a6.427,6.427,0,0,0-4.7-1.877,6.236,6.236,0,1,0-.022,12.464,6.857,6.857,0,0,0,3.8-1.042Z" transform="translate(950.855 301.662)" fill="#9ca3a2"/>
    <path id="Trazado_297" data-name="Trazado 297" d="M383.214,53.127a4.9,4.9,0,1,0,3.466,1.435,4.9,4.9,0,0,0-3.466-1.435m0,8.822a3.921,3.921,0,1,1,2.773-1.149,3.919,3.919,0,0,1-2.773,1.149" transform="translate(946.15 314.228)" fill="#90b572"/>
    <path id="Trazado_298" data-name="Trazado 298" d="M385.91,57.66a1.471,1.471,0,0,0-1.47-1.47h-2.45v4.9h.98V59.131h.715l1.309,1.961h1.177l-1.348-2.019a1.47,1.47,0,0,0,1.088-1.412m-1.47.49h-1.47v-.98h1.47a.49.49,0,1,1,0,.98" transform="translate(945.415 313.615)" fill="#90b572"/>
  </g>
</svg>
